<svg width="65" height="64" viewBox="0 0 65 64" fill="none" xmlns="http://www.w3.org/2000/svg">
<path d="M30.3454 42.0188C30.3454 39.6722 29.732 37.7042 28.5054 36.1068C27.636 35.0082 26.4574 34.2855 24.9667 33.9415C23.5 33.6002 22.1134 33.5762 20.86 33.8668C20.4334 31.3335 21.1267 28.6508 22.8867 25.8082C24.6467 22.9682 26.9267 20.8295 29.708 19.4002L25.492 13.3335C23.3587 14.3895 21.332 15.7282 19.4654 17.3468C17.572 18.9655 15.892 20.8268 14.3987 22.9308C12.9054 25.0348 11.7854 27.4108 11.0654 30.1042C10.3454 32.7975 10.1454 35.5442 10.4894 38.3708C10.9374 42.1042 12.1427 45.0908 14.1054 47.3042C16.0654 49.5468 18.5107 50.6668 21.4334 50.6668C24.0067 50.6668 26.1427 49.8935 27.8334 48.3255C29.508 46.7895 30.34 44.6855 30.34 42.0108L30.3454 42.0188ZM54.676 42.0188C54.676 39.6722 54.0627 37.7042 52.836 36.1068C51.9667 34.9868 50.7827 34.2615 49.2974 33.9282C47.804 33.5975 46.436 33.5815 45.1907 33.8695C44.764 31.3628 45.4307 28.6695 47.196 25.8162C48.956 22.9895 51.2307 20.8562 54.012 19.4162L49.8067 13.3335C47.6734 14.3895 45.66 15.7282 43.78 17.3468C41.8694 18.9895 40.1726 20.8655 38.7294 22.9308C37.2467 25.0375 36.1427 27.4108 35.4227 30.1042C34.6942 32.7959 34.4976 35.6039 34.844 38.3708C35.2867 42.1042 36.4867 45.0908 38.444 47.3042C40.3987 49.5282 42.836 50.6428 45.7587 50.6428C48.3374 50.6428 50.4734 49.8695 52.164 48.3042C53.836 46.7682 54.676 44.6642 54.676 41.9895V42.0188Z" fill="#E9E9E9"/>
</svg>
