<svg width="90" height="40" viewBox="0 0 90 40" fill="none" xmlns="http://www.w3.org/2000/svg">
<path d="M76.3667 7.73269C78.9567 6.79878 80.4104 6.71369 82.9999 7.73269V31.5667C80.4085 32.3845 78.9577 32.4433 76.3667 31.5667V7.73269Z" fill="black"/>
<path d="M73.0567 24.879H59.7903C59.9095 25.9412 60.1968 26.7324 60.652 27.2527C61.2915 28.0005 62.126 28.3744 63.1557 28.3744C63.806 28.3744 64.4238 28.2119 65.0091 27.8867C65.3668 27.6808 65.7515 27.3177 66.1634 26.7974C66.9383 25.8185 72.4877 26.0713 72.6828 27.399C71.6856 29.1331 70.4826 30.3796 69.0735 31.1383C67.6645 31.8861 65.6431 32.2601 63.0094 32.2601C60.7224 32.2601 58.9232 31.9403 57.6118 31.3009C56.3003 30.6505 55.211 29.6263 54.3439 28.2281C53.4877 26.8191 53.0596 25.1662 53.0596 23.2695C53.0596 20.5707 53.9212 18.3867 55.6446 16.7176C57.3787 15.0484 59.7686 14.2139 62.8143 14.2139C65.2855 14.2139 67.2364 14.5878 68.6671 15.3357C70.0978 16.0835 71.1871 17.1674 71.9349 18.5872C72.6828 20.0071 73.0567 21.8551 73.0567 24.1311V24.879ZM66.326 21.7087C66.1959 20.4298 65.8491 19.5139 65.2855 18.9612C64.7327 18.4084 64.0011 18.132 63.0907 18.132C62.0393 18.132 61.1993 18.5493 60.5707 19.3839C60.1697 19.9041 59.915 20.6791 59.8066 21.7087H66.326Z" fill="black"/>
<path d="M30.8618 23.2857C30.8618 20.652 31.7506 18.4843 33.5281 16.7826C35.3056 15.0701 37.7064 14.2139 40.7303 14.2139C44.1878 14.2139 46.7999 15.2164 48.5666 17.2216C49.9865 18.8365 50.6964 20.8254 50.6964 23.1882C50.6964 25.8436 49.813 28.0222 48.0464 29.7238C46.2905 31.4147 43.8572 32.2601 40.7466 32.2601C37.9719 32.2601 35.7283 31.5556 34.0158 30.1466C31.9132 28.4015 30.8618 26.1146 30.8618 23.2857ZM37.495 23.2695C37.495 24.8086 37.8039 25.9466 38.4217 26.6836C39.0503 27.4207 39.8361 27.7892 40.7791 27.7892C41.7329 27.7892 42.5133 27.4261 43.1202 26.6999C43.738 25.9737 44.0469 24.8086 44.0469 23.2045C44.0469 21.7087 43.738 20.5978 43.1202 19.8716C42.5024 19.1346 41.7383 18.7661 40.8279 18.7661C39.8632 18.7661 39.0666 19.14 38.438 19.8879C37.8093 20.6249 37.495 21.7521 37.495 23.2695Z" fill="black"/>
<path d="M27.7125 31.3622C24.4701 32.2797 22.6727 32.3449 20.0713 31.3622L7 9.78802C10.087 8.01318 11.7633 7.82961 14.5924 9.78802L27.7125 31.3622ZM7 31.3622V11.8365L13.2593 22.0952V31.3622C11.0572 32.269 9.71911 32.3857 7 31.3622ZM27.7125 9.78802V29.3137L21.4532 19.0062V9.78802C24.0301 8.20204 25.3973 8.17726 27.7125 9.78802Z" fill="black"/>
</svg>
